<?xml version="1.0" encoding="UTF-8"?>
<svg width="256px" height="256px" viewBox="0 0 256 256" version="1.1" xmlns="http://www.w3.org/2000/svg" xmlns:xlink="http://www.w3.org/1999/xlink">
    <title>Group 6</title>
    <g id="Page-1" stroke="none" stroke-width="1" fill="none" fill-rule="evenodd">
        <g id="Group-6">
            <rect id="Mask" fill="#55B4F0" x="0" y="0" width="256" height="256" rx="64"></rect>
            <g id="Group-5" transform="translate(50.000000, 49.000000)" fill="#FFFFFF">
                <path d="M80.3598682,67.4488294 L153.040586,109.585936 C153.996174,110.139945 154.321719,111.363714 153.767711,112.319302 C153.595342,112.616615 153.34927,112.864495 153.053227,113.039036 L80.9206235,155.567039 C78.3799004,157.065001 75.22105,157.043474 72.7009791,155.511023 L2.83381798,113.024915 C1.89004604,112.451009 1.59021061,111.220688 2.16411679,110.276916 C2.33312397,109.998989 2.56736926,109.766478 2.84654482,109.59954 L73.2564679,67.4968512 C75.4396627,66.1913765 78.1592227,66.1729912 80.3598682,67.4488294 Z" id="Rectangle-Copy-3" opacity="0.195472"></path>
                <path d="M80.3598682,34.7580734 L153.040586,76.8951803 C153.996174,77.4491886 154.321719,78.6729582 153.767711,79.6285463 C153.595342,79.9258587 153.34927,80.1737392 153.053227,80.3482801 L80.9206235,122.876283 C78.3799004,124.374245 75.22105,124.352718 72.7009791,122.820267 L2.83381798,80.3341595 C1.89004604,79.7602533 1.59021061,78.5299321 2.16411679,77.5861601 C2.33312397,77.3082328 2.56736926,77.0757217 2.84654482,76.9087844 L73.2564679,34.8060952 C75.4396627,33.5006205 78.1592227,33.4822352 80.3598682,34.7580734 Z" id="Rectangle-Copy-2" opacity="0.601614"></path>
                <path d="M80.3598682,2.06731738 L153.040586,44.2044243 C153.996174,44.7584326 154.321719,45.9822022 153.767711,46.9377903 C153.595342,47.2351027 153.34927,47.4829832 153.053227,47.6575241 L80.9206235,90.1855273 C78.3799004,91.683489 75.22105,91.6619615 72.7009791,90.1295105 L2.83381798,47.6434034 C1.89004604,47.0694973 1.59021061,45.839176 2.16411679,44.8954041 C2.33312397,44.6174767 2.56736926,44.3849657 2.84654482,44.2180284 L73.2564679,2.11533919 C75.4396627,0.809864502 78.1592227,0.791479196 80.3598682,2.06731738 Z" id="Rectangle"></path>
            </g>
        </g>
    </g>
</svg>